<svg xmlns="http://www.w3.org/2000/svg" width="28" height="20" viewBox="0 0 28 20">
  <g id="Group_509" data-name="Group 509" transform="translate(-36.375 -3.56)">
    <path id="Path_767" data-name="Path 767" d="M37.789,23.56l8.594-8.594a5.989,5.989,0,0,0,7.984,0l8.594,8.593Zm7.172-10-8.586,8.586V4.974ZM64.375,5V22.146l-8.567-8.567C58.7,10.757,61.535,7.878,64.375,5ZM62.961,3.56l-9.755,9.755a3.995,3.995,0,0,1-5.585.075l-.448-.432a.558.558,0,0,0-.038-.047.958.958,0,0,0-.185-.169c-3.111-3.015-6.155-6.1-9.2-9.182Z" fill="#9637f1" fill-rule="evenodd"/>
  </g>
</svg>
