<svg xmlns="http://www.w3.org/2000/svg" width="21.11" height="25.894" viewBox="0 0 21.11 25.894">
  <g id="Group_78" data-name="Group 78" transform="translate(-687.594 -153.805)">
    <path id="Path_348" data-name="Path 348" d="M935.033,156.058A5.542,5.542,0,0,1,939.1,153.8a5.529,5.529,0,0,1-1.338,4.139,4.373,4.373,0,0,1-3.856,1.814A4.808,4.808,0,0,1,935.033,156.058Z" transform="translate(-235.792)" fill="#999" fill-rule="evenodd"/>
    <path id="Path_349" data-name="Path 349" d="M698.33,301.386c.875,0,2.5-1.2,4.614-1.2a5.779,5.779,0,0,1,5.071,2.59,5.623,5.623,0,0,0-2.8,4.906,5.766,5.766,0,0,0,3.489,5.27s-2.439,6.864-5.733,6.864c-1.513,0-2.689-1.02-4.283-1.02-1.624,0-3.236,1.058-4.286,1.058-3.008,0-6.808-6.511-6.808-11.745,0-5.149,3.216-7.851,6.233-7.851C695.788,300.255,697.31,301.386,698.33,301.386Z" transform="translate(0 -140.151)" fill="#999" fill-rule="evenodd"/>
  </g>
</svg>
