<svg xmlns="http://www.w3.org/2000/svg" width="19.161" height="24.91" viewBox="0 0 19.161 24.91">
  <path id="Path_943" data-name="Path 943" d="M6.088,2.1A5.754,5.754,0,0,0,.339,7.849v3.832a3.832,3.832,0,0,0-3.832,3.832v7.664A3.832,3.832,0,0,0,.339,27.011h11.5a3.832,3.832,0,0,0,3.832-3.832V15.514a3.832,3.832,0,0,0-3.832-3.832V7.849A5.753,5.753,0,0,0,6.088,2.1Zm.958,18.607v1.217a.958.958,0,0,1-1.916,0V20.708a1.916,1.916,0,1,1,1.916,0Zm-4.79-9.027V7.849a3.832,3.832,0,1,1,7.664,0v3.832Z" transform="translate(3.493 -2.101)" fill="#919bab" opacity="0.5"/>
</svg>
