<svg xmlns="http://www.w3.org/2000/svg" width="32.854" height="32.821" viewBox="0 0 32.854 32.821">
  <g id="Group_1377" data-name="Group 1377" transform="translate(0 0)">
    <path id="Path" d="M8.374,10.894l3.935,4.177a1.721,1.721,0,0,0,2.06.091c2.191-.914,2.919-1.136,3.336-.695l4.523,4.8a1.59,1.59,0,0,1-.206,2.148,7.643,7.643,0,0,1-11.256,0l-8.45-8.969a8.751,8.751,0,0,1,0-11.862A1.443,1.443,0,0,1,4.42.365l4.523,4.8c.392.416.182,1.191-.674,3.5A2.064,2.064,0,0,0,8.374,10.894Z" transform="matrix(-0.695, 0.719, -0.719, -0.695, 32.854, 16.593)" fill="#9637f1"/>
    <ellipse id="Ellipse_40" data-name="Ellipse 40" cx="5.493" cy="5.493" rx="5.493" ry="5.493" transform="translate(10.801 19.185)" fill="#9637f1"/>
  </g>
</svg>
