<svg id="Group_767" data-name="Group 767" xmlns="http://www.w3.org/2000/svg" xmlns:xlink="http://www.w3.org/1999/xlink" width="43.246" height="43.243" viewBox="0 0 43.246 43.243">
  <defs>
    <linearGradient id="linear-gradient" x1="0.146" y1="0.146" x2="0.854" y2="0.854" gradientUnits="objectBoundingBox">
      <stop offset="0" stop-color="#22004a"/>
      <stop offset="0.957" stop-color="#010003"/>
      <stop offset="1"/>
    </linearGradient>
  </defs>
  <ellipse id="Ellipse_11" data-name="Ellipse 11" cx="21.623" cy="21.622" rx="21.623" ry="21.622" transform="translate(0 0)" fill="url(#linear-gradient)"/>
  <g id="Group_12" data-name="Group 12" transform="translate(9.498 7.92)">
    <path id="Path_232" data-name="Path 232" d="M100.1,246.345a10.772,10.772,0,0,0,6.278,2.007v-4.5a6.373,6.373,0,0,1-1.318-.139v3.545a10.758,10.758,0,0,1-6.278-2.008v9.189a8.33,8.33,0,0,1-12.964,6.915,8.329,8.329,0,0,0,14.281-5.819v-9.188Zm1.627-4.543a6.273,6.273,0,0,1-1.627-3.675v-.578h-1.25a6.306,6.306,0,0,0,2.876,4.253Zm-13,16.022a3.806,3.806,0,0,1,3.032-6.112,3.837,3.837,0,0,1,1.156.177v-4.6a8.382,8.382,0,0,0-1.319-.077v3.583a3.808,3.808,0,0,0-2.869,7.03Z" transform="translate(-82.128 -236.452)" fill="#ee1d52" fill-rule="evenodd"/>
    <path id="Path_233" data-name="Path 233" d="M99.551,245.247a10.758,10.758,0,0,0,6.278,2.008v-3.545A6.3,6.3,0,0,1,102.5,241.8a6.306,6.306,0,0,1-2.876-4.253H96.338v17.983a3.81,3.81,0,0,1-6.841,2.292,3.809,3.809,0,0,1,2.869-7.03v-3.583a8.322,8.322,0,0,0-5.778,14.14,8.33,8.33,0,0,0,12.964-6.915Z" transform="translate(-82.896 -236.452)" fill="#fff" fill-rule="evenodd"/>
    <path id="Path_234" data-name="Path 234" d="M106.255,244.066v-.958a6.291,6.291,0,0,1-3.333-.951A6.3,6.3,0,0,0,106.255,244.066Zm-6.21-6.162c-.03-.172-.053-.345-.068-.518v-.58H95.445v17.985a3.812,3.812,0,0,1-5.522,3.388,3.81,3.81,0,0,0,6.841-2.292V237.9Zm-7.254,9.662v-1.02a8.424,8.424,0,0,0-1.142-.077,8.322,8.322,0,0,0-4.636,15.237,8.322,8.322,0,0,1,5.778-14.14Z" transform="translate(-83.323 -236.807)" fill="#69c9d0" fill-rule="evenodd"/>
  </g>
</svg>
